# xmcd CD database file
#
# Track frame offsets:
#	150
#	23292
#	46512
#	62050
#	82957
#	100075
#	119127
#	143360
#	156627
#	180552
#	188780
#	202937
#
# Disc length: 3084 seconds
#
# Revision: 1
# Processed by: cddbd v1.5.1PL0 Copyright (c) Steve Scherf et al.
# Submitted via: CDex 1.51
#
DISCID=900c0a0c
DTITLE=Alvin Slaughter - Revive Us Again
DYEAR=2000
DGENRE=Worship and Praise
TTITLE0=Shout
TTITLE1=Speak Lord
TTITLE2=I'm Talking 'Bout Jesus
TTITLE3=Bless This Time
TTITLE4=Who Can Satisfy
TTITLE5=I Believe The Promise
TTITLE6=I Will Run To You
TTITLE7=Holy Spirit Rain Down
TTITLE8=We've Come To Worship The Lord
TTITLE9=He Alone Is Worthy
TTITLE10=You Are the One
TTITLE11=Suddenly
EXTD=YEAR: 2000
EXTT0=
EXTT1=
EXTT2=
EXTT3=
EXTT4=
EXTT5=
EXTT6=
EXTT7=
EXTT8=
EXTT9=
EXTT10=
EXTT11=
PLAYORDER=
